<svg width="42" height="42" viewBox="0 0 42 42" fill="none" xmlns="http://www.w3.org/2000/svg">
<g filter="url(#filter0_i_2003_379)">
<rect width="42" height="42" rx="13.051" fill="#00F6A8"/>
<g clip-path="url(#clip0_2003_379)">
<rect x="23.5148" y="15.7263" width="3.81331" height="19.3282" rx="1.90666" transform="rotate(44.0776 23.5148 15.7263)" fill="white"/>
<path d="M26.9999 18.0638C27 17.6615 26.9206 17.2632 26.7661 16.8918C26.6117 16.5204 26.3852 16.1833 26.0999 15.8998C25.516 15.3426 24.7399 15.0318 23.9329 15.0318C23.1258 15.0318 22.3498 15.3426 21.7659 15.8998L9.89989 27.7688C9.35831 28.3495 9.06333 29.1178 9.07712 29.9117C9.09092 30.7057 9.41241 31.4633 9.97384 32.0248C10.5353 32.5864 11.2928 32.908 12.0867 32.922C12.8807 32.936 13.649 32.6412 14.2299 32.0998L26.0999 20.2308C26.3857 19.947 26.6124 19.6093 26.7668 19.2374C26.9213 18.8654 27.0005 18.4665 26.9999 18.0638ZM12.8159 30.6878C12.6137 30.8804 12.3452 30.9879 12.0659 30.9879C11.7866 30.9879 11.518 30.8804 11.3159 30.6878C11.1173 30.4887 11.0058 30.2189 11.0058 29.9378C11.0058 29.6566 11.1173 29.3868 11.3159 29.1878L19.0849 21.4178L20.5899 22.9228L12.8159 30.6878ZM24.6879 18.8158L21.9999 21.5048L20.4999 19.9998L23.1889 17.3118C23.2847 17.2022 23.4021 17.1136 23.5336 17.0513C23.6651 16.989 23.808 16.9543 23.9535 16.9495C24.0989 16.9447 24.2438 16.9698 24.3792 17.0232C24.5145 17.0767 24.6375 17.1573 24.7404 17.2603C24.8433 17.3632 24.924 17.4861 24.9774 17.6215C25.0309 17.7568 25.056 17.9017 25.0511 18.0472C25.0463 18.1926 25.0117 18.3355 24.9494 18.4671C24.887 18.5986 24.7984 18.7159 24.6889 18.8118L24.6879 18.8158ZM13.8629 11.8548L15.4129 11.4128L15.8549 9.86275C15.9261 9.61404 16.0763 9.39527 16.2829 9.23953C16.4895 9.0838 16.7412 8.99956 16.9999 8.99956C17.2586 8.99956 17.5103 9.0838 17.7168 9.23953C17.9234 9.39527 18.0737 9.61404 18.1449 9.86275L18.5869 11.4128L20.1369 11.8548C20.3856 11.926 20.6044 12.0762 20.7601 12.2828C20.9158 12.4894 21.0001 12.741 21.0001 12.9998C21.0001 13.2585 20.9158 13.5101 20.7601 13.7167C20.6044 13.9233 20.3856 14.0735 20.1369 14.1448L18.5869 14.5868L18.1449 16.1368C18.0737 16.3855 17.9234 16.6042 17.7168 16.76C17.5103 16.9157 17.2586 16.9999 16.9999 16.9999C16.7412 16.9999 16.4895 16.9157 16.2829 16.76C16.0763 16.6042 15.9261 16.3855 15.8549 16.1368L15.4129 14.5868L13.8629 14.1448C13.6142 14.0735 13.3954 13.9233 13.2397 13.7167C13.0839 13.5101 12.9997 13.2585 12.9997 12.9998C12.9997 12.741 13.0839 12.4894 13.2397 12.2828C13.3954 12.0762 13.6142 11.926 13.8629 11.8548ZM32.1369 26.1448L30.5869 26.5868L30.1449 28.1368C30.0737 28.3855 29.9234 28.6042 29.7168 28.76C29.5103 28.9157 29.2586 28.9999 28.9999 28.9999C28.7412 28.9999 28.4895 28.9157 28.2829 28.76C28.0763 28.6042 27.9261 28.3855 27.8549 28.1368L27.4129 26.5868L25.8629 26.1448C25.6142 26.0735 25.3954 25.9233 25.2397 25.7167C25.0839 25.5101 24.9997 25.2585 24.9997 24.9998C24.9997 24.741 25.0839 24.4894 25.2397 24.2828C25.3954 24.0762 25.6142 23.926 25.8629 23.8548L27.4129 23.4128L27.8549 21.8628C27.9261 21.614 28.0763 21.3953 28.2829 21.2395C28.4895 21.0838 28.7412 20.9996 28.9999 20.9996C29.2586 20.9996 29.5103 21.0838 29.7168 21.2395C29.9234 21.3953 30.0737 21.614 30.1449 21.8628L30.5869 23.4128L32.1369 23.8548C32.3856 23.926 32.6044 24.0762 32.7601 24.2828C32.9158 24.4894 33.0001 24.741 33.0001 24.9998C33.0001 25.2585 32.9158 25.5101 32.7601 25.7167C32.6044 25.9233 32.3856 26.0735 32.1369 26.1448ZM26.7549 11.4998L28.1109 11.1128L28.4999 9.75475C28.5632 9.53857 28.6949 9.34872 28.8751 9.21367C29.0554 9.07861 29.2746 9.00561 29.4999 9.00561C29.7252 9.00561 29.9443 9.07861 30.1246 9.21367C30.3049 9.34872 30.4366 9.53857 30.4999 9.75475L30.8869 11.1108L32.2429 11.4978C32.4591 11.5611 32.6489 11.6927 32.784 11.873C32.919 12.0533 32.992 12.2725 32.992 12.4978C32.992 12.723 32.919 12.9422 32.784 13.1225C32.6489 13.3028 32.4591 13.4344 32.2429 13.4978L30.8869 13.8848L30.4999 15.2438C30.4366 15.4599 30.3049 15.6498 30.1246 15.7848C29.9443 15.9199 29.7252 15.9929 29.4999 15.9929C29.2746 15.9929 29.0554 15.9199 28.8751 15.7848C28.6949 15.6498 28.5632 15.4599 28.4999 15.2438L28.1129 13.8888L26.7549 13.4998C26.5387 13.4364 26.3489 13.3048 26.2138 13.1245C26.0787 12.9442 26.0057 12.725 26.0057 12.4998C26.0057 12.2745 26.0787 12.0553 26.2138 11.875C26.3489 11.6947 26.5387 11.5631 26.7549 11.4998Z" fill="#282828"/>
</g>
</g>
<defs>
<filter id="filter0_i_2003_379" x="0" y="0" width="42.5438" height="42.5438" filterUnits="userSpaceOnUse" color-interpolation-filters="sRGB">
<feFlood flood-opacity="0" result="BackgroundImageFix"/>
<feBlend mode="normal" in="SourceGraphic" in2="BackgroundImageFix" result="shape"/>
<feColorMatrix in="SourceAlpha" type="matrix" values="0 0 0 0 0 0 0 0 0 0 0 0 0 0 0 0 0 0 127 0" result="hardAlpha"/>
<feOffset dx="0.543791" dy="0.543791"/>
<feGaussianBlur stdDeviation="0.271895"/>
<feComposite in2="hardAlpha" operator="arithmetic" k2="-1" k3="1"/>
<feColorMatrix type="matrix" values="0 0 0 0 1 0 0 0 0 1 0 0 0 0 1 0 0 0 0.25 0"/>
<feBlend mode="normal" in2="shape" result="effect1_innerShadow_2003_379"/>
</filter>
<clipPath id="clip0_2003_379">
<rect width="24" height="24" fill="white" transform="translate(9 9)"/>
</clipPath>
</defs>
</svg>
